<svg width="742" height="752" viewBox="0 0 742 752" fill="none" xmlns="http://www.w3.org/2000/svg">
<path d="M639.5 30C672 30 690.5 23.9999 700.5 36.5C710.5 49.0001 701.667 99.1666 700.5 115" stroke="black" stroke-width="6" stroke-linejoin="round"/>
<path d="M302 558L292 547C318.395 533.586 381.895 514.974 465.5 457.5C516.136 422.69 580.968 362.109 621 302.5L621.236 302.148C649.457 260.126 680.696 213.609 693.5 156.5C704.933 101.069 708.962 100.754 710 91.0516V67C710.332 80.6062 710.46 86.751 710 91.0516V164L673 266.5L621 348.5L518.5 457.5L451.5 498L302 558Z" fill="black"/>
<path d="M292 547L302 558L451.5 498L518.5 457.5L621 348.5L673 266.5L710 164V67C711.081 111.303 710 76.5 693.5 156.5C680.661 213.768 649.283 260.385 621 302.5C580.968 362.109 516.136 422.69 465.5 457.5C381.895 514.974 318.395 533.586 292 547Z" stroke="black" stroke-width="12"/>
<path d="M478.629 154.86C523.234 124.325 553.63 142.137 568 154.86C580.454 170.474 607.386 211.071 577.496 248.546C547.606 286.02 504.502 268.53 484 256C465.414 234.41 434.024 185.395 478.629 154.86Z" stroke="black" stroke-width="30"/>
<path d="M457 213C461.5 234 484.374 257.488 507 257C522.122 256.674 550.081 256.422 562.5 242C576.343 225.924 584.948 199.186 580.5 183.5C575.68 166.5 563 149 547.5 141.5" stroke="black" stroke-width="16"/>
<path d="M183.12 439.306C179.975 436.202 174.91 436.236 171.806 439.38C168.702 442.525 168.736 447.59 171.88 450.694L183.12 439.306ZM254 520.5L260.221 515.47L259.939 515.121L259.62 514.806L254 520.5ZM291.092 566.377L297.313 561.347L291.092 566.377ZM296.17 574.478L337.319 558.987L331.681 544.013L290.533 559.504L296.17 574.478ZM171.88 450.694L248.38 526.194L259.62 514.806L183.12 439.306L171.88 450.694ZM247.779 525.53L284.871 571.407L297.313 561.347L260.221 515.47L247.779 525.53ZM290.533 559.504C292.954 558.593 295.687 559.335 297.313 561.347L284.871 571.407C287.581 574.759 292.136 575.997 296.17 574.478L290.533 559.504Z" fill="black"/>
<path d="M639.5 30C672 30 690.5 23.9999 700.5 36.5C710.5 49.0001 701.667 99.1666 700.5 115" stroke="black" stroke-width="6" stroke-linejoin="round"/>
<path d="M302 558L292 547C318.395 533.586 381.895 514.974 465.5 457.5C516.136 422.69 580.968 362.109 621 302.5L621.236 302.148C649.457 260.126 680.696 213.609 693.5 156.5C704.933 101.069 708.962 100.754 710 91.0516V67C710.332 80.6062 710.46 86.751 710 91.0516V164L673 266.5L621 348.5L518.5 457.5L451.5 498L302 558Z" fill="black"/>
<path d="M292 547L302 558L451.5 498L518.5 457.5L621 348.5L673 266.5L710 164V67C711.081 111.303 710 76.5 693.5 156.5C680.661 213.768 649.283 260.385 621 302.5C580.968 362.109 516.136 422.69 465.5 457.5C381.895 514.974 318.395 533.586 292 547Z" stroke="black" stroke-width="12"/>
<path d="M478.629 154.86C523.234 124.325 553.63 142.137 568 154.86C580.454 170.474 607.386 211.071 577.496 248.546C547.606 286.02 504.502 268.53 484 256C465.414 234.41 434.024 185.395 478.629 154.86Z" stroke="black" stroke-width="30"/>
<path d="M457 213C461.5 234 484.374 257.488 507 257C522.122 256.674 550.081 256.422 562.5 242C576.343 225.924 584.948 199.186 580.5 183.5C575.68 166.5 563 149 547.5 141.5" stroke="black" stroke-width="16"/>
<path d="M183.12 439.306C179.975 436.202 174.91 436.236 171.806 439.38C168.702 442.525 168.736 447.59 171.88 450.694L183.12 439.306ZM254 520.5L260.221 515.47L259.939 515.121L259.62 514.806L254 520.5ZM291.092 566.377L297.313 561.347L291.092 566.377ZM296.17 574.478L337.319 558.987L331.681 544.013L290.533 559.504L296.17 574.478ZM171.88 450.694L248.38 526.194L259.62 514.806L183.12 439.306L171.88 450.694ZM247.779 525.53L284.871 571.407L297.313 561.347L260.221 515.47L247.779 525.53ZM290.533 559.504C292.954 558.593 295.687 559.335 297.313 561.347L284.871 571.407C287.581 574.759 292.136 575.997 296.17 574.478L290.533 559.504Z" fill="black"/>
<path d="M205 376C197.636 396.322 184.356 424.758 180.273 440.413C179.869 441.959 179.667 442.733 179.925 443.554C180.182 444.375 180.834 444.934 182.139 446.052L244.5 499.5L297.449 557.496C298.691 558.857 299.313 559.538 300.157 559.766C301.001 559.994 301.871 559.721 303.612 559.176C313.57 556.059 327.872 551.262 341.5 546.583C354.616 542.08 367.107 537.686 374.5 535M205 376L160.927 383.464C159.972 383.626 159.494 383.707 159.023 383.637C158.552 383.567 158.118 383.351 157.25 382.919L63.4037 336.179C58.4667 333.721 55.9983 332.491 56.04 330.589C56.0817 328.686 58.6017 327.566 63.6417 325.326L190.89 268.771C191.195 268.636 191.347 268.568 191.506 268.518C191.664 268.467 191.828 268.435 192.155 268.37L265.352 253.791M205 376C210.982 359.492 214.205 349.635 223.5 330.5C235.96 304.849 246.248 281.423 265.352 253.791M265.352 253.791C300.405 203.088 344.308 156.401 405.5 114C431.432 93.0075 484.066 54.3909 564 37.7906C602.74 29.7452 656.253 25.7651 703 29.2906C705.333 29.2906 710.4 30.9906 712 37.7906C713.211 42.9379 717.539 109.429 703 180C693.53 225.967 662.055 294.07 630.5 334.5C581.719 397.001 556.791 428.856 486 476.824M374.5 535L357.139 578.909C356.581 580.321 356.302 581.028 356.375 581.753C356.448 582.478 356.862 583.115 357.691 584.388L410.913 666.149C413.594 670.267 414.935 672.327 416.721 672.177C418.508 672.027 419.487 669.773 421.445 665.265L471.243 550.591C471.371 550.296 471.436 550.148 471.484 549.995C471.531 549.841 471.563 549.684 471.625 549.368L486 476.824M374.5 535C401.696 525.121 395.334 523.189 417 512.5C440.068 501.119 467.833 489.134 486 476.824" stroke="black" stroke-width="55" stroke-linejoin="round"/>
<path d="M478.629 154.86C523.234 124.325 553.63 142.137 568 154.86C580.454 170.474 607.386 211.071 577.496 248.546C547.606 286.02 504.502 268.53 484 256C465.414 234.41 434.024 185.395 478.629 154.86Z" stroke="black" stroke-width="45"/>
<path d="M457 213C461.5 234 484.374 257.488 507 257C522.122 256.674 550.081 256.422 562.5 242C576.343 225.924 584.948 199.186 580.5 183.5C575.68 166.5 563 149 547.5 141.5" stroke="black" stroke-width="39"/>
<path d="M12 560.94L157.5 441.5L308 580.5L130.704 738L150.174 624.581L50.9399 665.538L76.6904 572.282L12 560.94Z" fill="black" stroke="black" stroke-width="10"/>
<path d="M128.103 538.113L192.542 484.004C192.894 483.708 193.403 483.691 193.775 483.962L225.87 507.405C225.956 507.468 226.032 507.544 226.094 507.631L253.008 545.311C253.292 545.709 253.247 546.253 252.902 546.599L194.85 604.788C194.22 605.419 193.142 604.973 193.142 604.082V562.947C193.142 562.248 192.443 561.764 191.789 562.011L148.014 578.55C147.148 578.878 146.34 577.952 146.782 577.138L166.199 541.356C166.56 540.69 166.078 539.879 165.32 539.879H128.746C127.813 539.879 127.388 538.714 128.103 538.113Z" fill="white" stroke="black" stroke-width="10"/>
</svg>
