<svg width="1080" height="1080" viewBox="0 0 1080 1080" fill="none" xmlns="http://www.w3.org/2000/svg">
<rect width="1080" height="1080" fill="white"/>
<path d="M766.5 243C799 243 817.5 237 827.5 249.5C837.5 262 828.667 312.167 827.5 328" stroke="black" stroke-width="6" stroke-linejoin="round"/>
<path d="M429 771L419 760C445.395 746.586 508.895 727.974 592.5 670.5C643.136 635.69 707.968 575.109 748 515.5L748.236 515.148C776.457 473.126 807.696 426.609 820.5 369.5C831.933 314.069 835.962 313.754 837 304.052V280C837.332 293.606 837.46 299.751 837 304.052V377L800 479.5L748 561.5L645.5 670.5L578.5 711L429 771Z" fill="black" stroke="black" stroke-width="12"/>
<path d="M605.629 367.86C650.234 337.325 680.63 355.137 695 367.86C707.454 383.474 734.386 424.071 704.496 461.546C674.606 499.02 631.502 481.53 611 469C592.414 447.41 561.024 398.395 605.629 367.86Z" stroke="black" stroke-width="30"/>
<path d="M584 426C588.5 447 611.374 470.488 634 470C649.122 469.674 677.081 469.422 689.5 455C703.343 438.924 711.948 412.186 707.5 396.5C702.68 379.5 690 362 674.5 354.5" stroke="black" stroke-width="16"/>
<path d="M310.12 652.306C306.975 649.202 301.91 649.236 298.806 652.38C295.702 655.525 295.736 660.59 298.88 663.694L310.12 652.306ZM381 733.5L387.221 728.47L386.939 728.121L386.62 727.806L381 733.5ZM418.092 779.377L424.313 774.347L418.092 779.377ZM423.17 787.478L464.319 771.987L458.681 757.013L417.533 772.504L423.17 787.478ZM298.88 663.694L375.38 739.194L386.62 727.806L310.12 652.306L298.88 663.694ZM374.779 738.53L411.871 784.407L424.313 774.347L387.221 728.47L374.779 738.53ZM417.533 772.504C419.954 771.593 422.687 772.335 424.313 774.347L411.871 784.407C414.581 787.759 419.136 788.997 423.17 787.478L417.533 772.504Z" fill="black"/>
<path d="M766.5 243C799 243 817.5 237 827.5 249.5C837.5 262 828.667 312.167 827.5 328" stroke="black" stroke-width="6" stroke-linejoin="round"/>
<path d="M429 771L419 760C445.395 746.586 508.895 727.974 592.5 670.5C643.136 635.69 707.968 575.109 748 515.5L748.236 515.148C776.457 473.126 807.696 426.609 820.5 369.5C831.933 314.069 835.962 313.754 837 304.052V280C837.332 293.606 837.46 299.751 837 304.052V377L800 479.5L748 561.5L645.5 670.5L578.5 711L429 771Z" fill="black" stroke="black" stroke-width="12"/>
<path d="M605.629 367.86C650.234 337.325 680.63 355.137 695 367.86C707.454 383.474 734.386 424.071 704.496 461.546C674.606 499.02 631.502 481.53 611 469C592.414 447.41 561.024 398.395 605.629 367.86Z" stroke="black" stroke-width="30"/>
<path d="M584 426C588.5 447 611.374 470.488 634 470C649.122 469.674 677.081 469.422 689.5 455C703.343 438.924 711.948 412.186 707.5 396.5C702.68 379.5 690 362 674.5 354.5" stroke="black" stroke-width="16"/>
<path d="M310.12 652.306C306.975 649.202 301.91 649.236 298.806 652.38C295.702 655.525 295.736 660.59 298.88 663.694L310.12 652.306ZM381 733.5L387.221 728.47L386.939 728.121L386.62 727.806L381 733.5ZM418.092 779.377L424.313 774.347L418.092 779.377ZM423.17 787.478L464.319 771.987L458.681 757.013L417.533 772.504L423.17 787.478ZM298.88 663.694L375.38 739.194L386.62 727.806L310.12 652.306L298.88 663.694ZM374.779 738.53L411.871 784.407L424.313 774.347L387.221 728.47L374.779 738.53ZM417.533 772.504C419.954 771.593 422.687 772.335 424.313 774.347L411.871 784.407C414.581 787.759 419.136 788.997 423.17 787.478L417.533 772.504Z" fill="black"/>
<path d="M332 589C324.636 609.322 311.356 637.758 307.273 653.413C306.869 654.959 306.667 655.733 306.925 656.554C307.182 657.375 307.834 657.934 309.139 659.052L371.5 712.5L424.449 770.496C425.691 771.857 426.313 772.538 427.157 772.766C428.001 772.994 428.871 772.721 430.612 772.176C440.57 769.059 454.872 764.262 468.5 759.583C481.616 755.08 494.107 750.686 501.5 748M332 589L287.927 596.464C286.972 596.626 286.494 596.707 286.023 596.637C285.552 596.567 285.118 596.351 284.25 595.919L190.404 549.179C185.467 546.721 182.998 545.491 183.04 543.589C183.082 541.686 185.602 540.566 190.642 538.326L317.89 481.771C318.195 481.636 318.347 481.568 318.506 481.518C318.664 481.467 318.828 481.435 319.155 481.37L392.352 466.791M332 589C337.982 572.492 341.205 562.635 350.5 543.5C362.96 517.849 373.248 494.423 392.352 466.791M392.352 466.791C427.405 416.088 471.308 369.401 532.5 327C558.432 306.007 611.066 267.391 691 250.791C729.74 242.745 783.253 238.765 830 242.291C832.333 242.291 837.4 243.991 839 250.791C840.211 255.938 844.539 322.429 830 393C820.53 438.967 789.055 507.07 757.5 547.5C708.719 610.001 683.791 641.856 613 689.824M501.5 748L484.139 791.909C483.581 793.321 483.302 794.028 483.375 794.753C483.448 795.478 483.862 796.115 484.691 797.388L537.913 879.149C540.594 883.267 541.935 885.327 543.721 885.177C545.508 885.027 546.487 882.773 548.445 878.265L598.243 763.591C598.371 763.296 598.436 763.148 598.484 762.995C598.531 762.841 598.563 762.684 598.625 762.368L613 689.824M501.5 748C528.696 738.121 522.334 736.189 544 725.5C567.068 714.119 594.833 702.134 613 689.824" stroke="black" stroke-width="55" stroke-linejoin="round"/>
<path d="M605.629 367.86C650.234 337.325 680.63 355.137 695 367.86C707.454 383.474 734.386 424.071 704.496 461.546C674.606 499.02 631.502 481.53 611 469C592.414 447.41 561.024 398.395 605.629 367.86Z" stroke="black" stroke-width="45"/>
<path d="M584 426C588.5 447 611.374 470.488 634 470C649.122 469.674 677.081 469.422 689.5 455C703.343 438.924 711.948 412.186 707.5 396.5C702.68 379.5 690 362 674.5 354.5" stroke="black" stroke-width="39"/>
<path d="M139 773.94L284.5 654.5L435 793.5L257.704 951L277.174 837.581L177.94 878.538L203.69 785.282L139 773.94Z" fill="black" stroke="black" stroke-width="10"/>
<path d="M255.103 751.113L319.542 697.004C319.894 696.708 320.403 696.691 320.775 696.962L352.87 720.405C352.956 720.468 353.032 720.544 353.094 720.631L380.008 758.311C380.292 758.709 380.247 759.253 379.902 759.599L321.85 817.788C321.22 818.419 320.142 817.973 320.142 817.082V775.947C320.142 775.248 319.443 774.764 318.789 775.011L275.014 791.55C274.148 791.878 273.34 790.952 273.782 790.138L293.199 754.356C293.56 753.69 293.078 752.879 292.32 752.879H255.746C254.813 752.879 254.388 751.714 255.103 751.113Z" fill="white" stroke="black" stroke-width="10"/>
</svg>
